<svg width="16" height="16" viewBox="0 0 16 16" fill="none" xmlns="http://www.w3.org/2000/svg">
<path fill-rule="evenodd" clip-rule="evenodd" d="M15.9205 8.23962C15.8399 8.36001 14.4205 10.2794 12.1604 11.5997L15.8799 15.3192C16.04 15.4793 16.04 15.7191 15.8799 15.8793C15.8002 15.9598 15.7002 15.9996 15.6002 15.9996C15.5002 15.9996 15.4002 15.9598 15.3205 15.8793L11.4207 11.9794C10.4003 12.4599 9.26053 12.7997 8.00042 12.7997C3.55587 12.7997 0.384851 8.63916 0.0968922 8.26134C0.0894104 8.25153 0.083875 8.24427 0.0803139 8.2397C-0.0196823 8.09986 -0.0196823 7.89987 0.0803139 7.76003C0.160911 7.63964 1.58026 5.72023 3.84037 4.39996L0.120113 0.680496C-0.0400375 0.520342 -0.0400375 0.280507 0.120113 0.120357C0.280267 -0.0397934 0.520102 -0.0397934 0.680252 0.120357L4.58011 4.02021C5.60047 3.53975 6.74027 3.19992 8.00038 3.19992C12.4449 3.19992 15.616 7.36049 15.9039 7.7383C15.9114 7.74812 15.9169 7.75538 15.9205 7.75995C16.0205 7.89979 16.0205 8.09978 15.9205 8.23962ZM8.01982 4.79994C9.77991 4.79994 11.2197 6.23973 11.2197 7.99982C11.2197 9.72628 9.72454 11.1998 8.00044 11.1998C6.24035 11.1998 4.80056 9.76006 4.80056 7.99996C4.80056 6.2656 6.2838 4.79994 8.01982 4.79994Z" fill="#bebebe"/>
</svg>
