<?xml version="1.0" encoding="UTF-8" standalone="no"?>
<svg width="50px" height="40px" viewBox="0 0 50 40" version="1.1" xmlns="http://www.w3.org/2000/svg" xmlns:xlink="http://www.w3.org/1999/xlink">
    <!-- Generator: Sketch 48.1 (47250) - http://www.bohemiancoding.com/sketch -->
    <title>Group 12</title>
    <desc>Created with Sketch.</desc>
    <defs></defs>
    <g id="Artboard-3" stroke="none" stroke-width="1" fill="none" fill-rule="evenodd" transform="translate(-162.000000, -103.000000)">
        <g id="Group-12" transform="translate(162.000000, 103.000000)">
            <rect id="Rectangle-33-Copy" fill="#FFFFFF" x="0" y="2" width="50" height="17"></rect>
            <g id="Group-8">
                <path d="M0,4 L50,4 L50,38 C50,39.1045695 49.1045695,40 48,40 L2,40 C0.8954305,40 1.3527075e-16,39.1045695 0,38 L0,4 Z" id="Rectangle-30" fill="#E4E4E4"></path>
                <path d="M2,0 L48,0 C49.1045695,-2.02906125e-16 50,0.8954305 50,2 L50,3 L0,3 L0,2 C-1.3527075e-16,0.8954305 0.8954305,2.02906125e-16 2,0 Z" id="Rectangle-30" fill="#C4C4C4"></path>
                <rect id="Rectangle-32" fill="#717171" x="6" y="15" width="38" height="14"></rect>
                <path d="M6.5,4.5 L6.5,39.5" id="Line" stroke="#979797" stroke-linecap="square" stroke-dasharray="2"></path>
                <path d="M43.5,4.5 L43.5,39.5" id="Line" stroke="#979797" stroke-linecap="square" stroke-dasharray="2"></path>
                <g id="Group" transform="translate(5.000000, 4.000000)"></g>
                <g id="Group" transform="translate(42.000000, 4.000000)"></g>
            </g>
        </g>
    </g>
</svg>