<?xml version="1.0" encoding="UTF-8" standalone="no"?>
<svg width="50px" height="40px" viewBox="0 0 50 40" version="1.1" xmlns="http://www.w3.org/2000/svg" xmlns:xlink="http://www.w3.org/1999/xlink">
    <!-- Generator: Sketch 48.1 (47250) - http://www.bohemiancoding.com/sketch -->
    <title>Group 18</title>
    <desc>Created with Sketch.</desc>
    <defs></defs>
    <g id="Artboard-3" stroke="none" stroke-width="1" fill="none" fill-rule="evenodd" transform="translate(-163.000000, -203.000000)">
        <g id="Group-18" transform="translate(163.000000, 203.000000)">
            <rect id="Rectangle" fill="#FFFFFF" x="0" y="2" width="50" height="18"></rect>
            <g id="Group-7-Copy-2">
                <path d="M0,4 L50,4 L50,38 C50,39.1045695 49.1045695,40 48,40 L2,40 C0.8954305,40 1.3527075e-16,39.1045695 0,38 L0,4 Z" id="Rectangle-30" fill="#E4E4E4"></path>
                <path d="M2,0 L48,0 C49.1045695,-2.02906125e-16 50,0.8954305 50,2 L50,3 L0,3 L0,2 C-1.3527075e-16,0.8954305 0.8954305,2.02906125e-16 2,0 Z" id="Rectangle-30" fill="#C4C4C4"></path>
                <rect id="Rectangle-32" fill="#717171" x="0" y="13" width="50" height="19"></rect>
            </g>
        </g>
    </g>
</svg>