<?xml version="1.0" encoding="UTF-8" standalone="no"?>
<svg width="50px" height="40px" viewBox="0 0 50 40" version="1.1" xmlns="http://www.w3.org/2000/svg" xmlns:xlink="http://www.w3.org/1999/xlink">
    <!-- Generator: Sketch 47.1 (45422) - http://www.bohemiancoding.com/sketch -->
    <title>Group 20</title>
    <desc>Created with Sketch.</desc>
    <defs></defs>
    <g id="Page-1" stroke="none" stroke-width="1" fill="none" fill-rule="evenodd">
        <g id="Artboard-3" transform="translate(-219.000000, -385.000000)">
            <g id="Group-20" transform="translate(219.000000, 385.000000)">
                <g id="Group-3-Copy-3">
                    <rect id="Rectangle-33" fill="#FFFFFF" x="0" y="14" width="50" height="17"></rect>
                    <path d="M0,4 L50,4 L50,38 L50,38 C50,39.1045695 49.1045695,40 48,40 L2,40 L2,40 C0.8954305,40 1.3527075e-16,39.1045695 0,38 L0,4 Z" id="Rectangle-30" fill="#E4E4E4"></path>
                    <path d="M2,0 L48,0 L48,0 C49.1045695,-2.02906125e-16 50,0.8954305 50,2 L50,3 L0,3 L0,2 L0,2 C-1.3527075e-16,0.8954305 0.8954305,2.02906125e-16 2,0 Z" id="Rectangle-30" fill="#C4C4C4"></path>
                </g>
                <rect id="Rectangle-2-Copy-4" fill="#868686" x="26" y="11" width="21" height="21"></rect>
                <g id="Group-2-Copy-2" transform="translate(3.000000, 15.000000)">
                    <rect id="Rectangle-2-Copy" fill="#717171" x="0" y="0" width="20" height="2"></rect>
                    <rect id="Rectangle-2-Copy-2" fill="#A1A1A1" x="0" y="7" width="21" height="1"></rect>
                    <rect id="Rectangle-2-Copy-2" fill="#A1A1A1" x="0" y="3" width="21" height="1"></rect>
                    <rect id="Rectangle-2-Copy-2" fill="#A1A1A1" x="0" y="5" width="21" height="1"></rect>
                    <rect id="Rectangle-2-Copy-2" fill="#A1A1A1" x="0" y="9" width="21" height="1"></rect>
                    <rect id="Rectangle-2-Copy-2" fill="#A1A1A1" x="0" y="11" width="19" height="1"></rect>
                    <rect id="Rectangle-2-Copy-2" fill="#A1A1A1" x="0" y="13" width="18" height="1"></rect>
                </g>
                <g id="Group-2-Copy" transform="translate(30.000000, 18.000000)" fill="#D8D8D8">
                    <polygon id="Triangle" points="4.5 0 9 6 0 6"></polygon>
                    <polygon id="Triangle" points="9.5 1.625 13 6 6 6"></polygon>
                </g>
            </g>
        </g>
    </g>
</svg>