<?xml version="1.0" encoding="UTF-8" standalone="no"?>
<svg width="50px" height="40px" viewBox="0 0 50 40" version="1.1" xmlns="http://www.w3.org/2000/svg" xmlns:xlink="http://www.w3.org/1999/xlink">
    <!-- Generator: Sketch 47.1 (45422) - http://www.bohemiancoding.com/sketch -->
    <title>Group 23</title>
    <desc>Created with Sketch.</desc>
    <defs></defs>
    <g id="Page-1" stroke="none" stroke-width="1" fill="none" fill-rule="evenodd">
        <g id="Artboard-3" transform="translate(-219.000000, -334.000000)">
            <g id="Group-23" transform="translate(219.000000, 334.000000)">
                <g id="Group-3-Copy-2">
                    <g id="Group-22" transform="translate(0.000000, 4.000000)">
                        <rect id="Rectangle-33" fill="#FFFFFF" x="0" y="10" width="50" height="17"></rect>
                        <path d="M0,0 L50,0 L50,34 L50,34 C50,35.1045695 49.1045695,36 48,36 L2,36 L2,36 C0.8954305,36 1.3527075e-16,35.1045695 0,34 L0,0 Z" id="Rectangle-30" fill="#E4E4E4"></path>
                        <rect id="Rectangle-2-Copy-4" fill="#868686" x="3" y="7" width="21" height="21"></rect>
                        <rect id="Rectangle-2-Copy" fill="#717171" x="26" y="11" width="20" height="2"></rect>
                        <rect id="Rectangle-2-Copy-2" fill="#A1A1A1" x="26" y="18" width="21" height="1"></rect>
                        <rect id="Rectangle-2-Copy-2" fill="#A1A1A1" x="26" y="14" width="21" height="1"></rect>
                        <rect id="Rectangle-2-Copy-2" fill="#A1A1A1" x="26" y="16" width="21" height="1"></rect>
                        <rect id="Rectangle-2-Copy-2" fill="#A1A1A1" x="26" y="20" width="21" height="1"></rect>
                        <rect id="Rectangle-2-Copy-2" fill="#A1A1A1" x="26" y="22" width="19" height="1"></rect>
                        <rect id="Rectangle-2-Copy-2" fill="#A1A1A1" x="26" y="24" width="18" height="1"></rect>
                        <polygon id="Triangle" fill="#D8D8D8" points="11.5 14 16 20 7 20"></polygon>
                        <polygon id="Triangle" fill="#D8D8D8" points="16.5 15.625 20 20 13 20"></polygon>
                    </g>
                    <path d="M2,0 L48,0 L48,0 C49.1045695,-2.02906125e-16 50,0.8954305 50,2 L50,3 L0,3 L0,2 L0,2 C-1.3527075e-16,0.8954305 0.8954305,2.02906125e-16 2,0 Z" id="Rectangle-30" fill="#C4C4C4"></path>
                </g>
                <g id="Group-21" transform="translate(3.000000, 11.000000)">
                    <g id="Group-2-Copy-2" transform="translate(23.000000, 4.000000)"></g>
                </g>
                <g id="Group-2" transform="translate(7.000000, 18.000000)"></g>
            </g>
        </g>
    </g>
</svg>