<svg width="16" height="10" viewBox="0 0 16 10" fill="none" xmlns="http://www.w3.org/2000/svg">
<path fill-rule="evenodd" clip-rule="evenodd" d="M8 8.75001C4.43775 8.75001 1.63614 5.84378 0.895915 5.00004C1.61665 4.15629 4.41834 1.25007 8 1.25007C11.5623 1.25007 14.3639 4.15629 15.1041 5.00004C14.3638 5.84378 11.5817 8.75001 8 8.75001ZM4.79816 5.00004C4.79816 3.3499 6.23883 2.00006 8 2.00006C9.76117 2.00006 11.2018 3.3499 11.2018 5.00004C11.2018 6.65017 9.76117 8.00001 8 8.00001C6.23883 8.00001 4.79816 6.65017 4.79816 5.00004Z" fill="#787878"/>
<path fill-rule="evenodd" clip-rule="evenodd" d="M15.925 4.77515C16.025 4.90625 16.025 5.09375 15.925 5.22485C15.9214 5.22917 15.9158 5.23604 15.9082 5.24535C15.6189 5.60088 12.4465 9.5 8 9.5C3.55273 9.5 0.379767 5.59936 0.0916316 5.24515C0.0841452 5.23594 0.0786064 5.22913 0.0750432 5.22485C-0.0250144 5.09375 -0.0250144 4.90625 0.0750432 4.77515C0.0786354 4.77083 0.0842305 4.76396 0.0917997 4.75465C0.381072 4.39912 3.55352 0.5 8 0.5C12.4473 0.5 15.6202 4.40064 15.9084 4.75485C15.9159 4.76406 15.9214 4.77087 15.925 4.77515ZM0.895915 5.00004C1.63614 5.84378 4.43775 8.75001 8 8.75001C11.5817 8.75001 14.3638 5.84378 15.1041 5.00004C14.3639 4.15629 11.5623 1.25007 8 1.25007C4.41834 1.25007 1.61665 4.15629 0.895915 5.00004Z" fill="#787878"/>
</svg>
