<svg xmlns="http://www.w3.org/2000/svg" width="16" height="16" fill="#A9ACB1" class="bi bi-align-center" viewBox="0 0 16 16">
  <rect width="4" height="12" x="6" y="1" rx="1"/>
  <path d="M1.5 14a.5.5 0 0 0 0 1v-1zm13 1a.5.5 0 0 0 0-1v1zm-13 0h13v-1h-13v1z"/>

  <path d="M8 1a.5.5 0 0 1 .5.5V6h-1V1.5A.5.5 0 0 1 8 1zm0 14a.5.5 0 0 1-.5-.5V10h1v4.5a.5.5 0 0 1-.5.5zM2 7a1 1 0 0 1 1-1h10a1 1 0 0 1 1 1v2a1 1 0 0 1-1 1H3a1 1 0 0 1-1-1V7z"/>

  <path fill-rule="evenodd" d="M14.5 1a.5.5 0 0 0-.5.5v13a.5.5 0 0 0 1 0v-13a.5.5 0 0 0-.5-.5z"/>
  <path d="M13 7a1 1 0 0 0-1-1H2a1 1 0 0 0-1 1v2a1 1 0 0 0 1 1h10a1 1 0 0 0 1-1V7z"/>

  <path d="M6 13a1 1 0 0 0 1 1h2a1 1 0 0 0 1-1V3a1 1 0 0 0-1-1H7a1 1 0 0 0-1 1v10zM1 8a.5.5 0 0 0 .5.5H6v-1H1.5A.5.5 0 0 0 1 8zm14 0a.5.5 0 0 1-.5.5H10v-1h4.5a.5.5 0 0 1 .5.5z"/>

  <path fill-rule="evenodd" d="M1.5 1a.5.5 0 0 1 .5.5v13a.5.5 0 0 1-1 0v-13a.5.5 0 0 1 .5-.5z"/>
  <path d="M3 7a1 1 0 0 1 1-1h10a1 1 0 0 1 1 1v2a1 1 0 0 1-1 1H4a1 1 0 0 1-1-1V7z"/>

  <rect width="4" height="12" rx="1" transform="matrix(1 0 0 -1 6 15)"/>
  <path d="M1.5 2a.5.5 0 0 1 0-1v1zm13-1a.5.5 0 0 1 0 1V1zm-13 0h13v1h-13V1z"/>
</svg>